# xmcd CD database file
#
# Track frame offsets:
#	150
#	37204
#	67673
#	102156
#	135691
#	173522
#	202402
#	233141
#
# Disc length: 3568 seconds
#
# Revision: 0
# Processed by: cddbd v1.4PL0 Copyright (c) Steve Scherf et al.
# Submitted via: Feurio! 1.63.4ß - http://www.feurio.com
#
DISCID=6c0dee08
DTITLE=FRERE DEBABA - MUSAMALIYA
DYEAR=1900
DGENRE=Gospel
TTITLE0=La Conversion
TTITLE1=Libala
TTITLE2=La Reconciliation
TTITLE3=Musamaliya
TTITLE4=La Croix est le terminus
TTITLE5=Louange à Dieu
TTITLE6=La Divinité
TTITLE7=La Reconciliation (Instrumental)
EXTD=
EXTT0=
EXTT1=
EXTT2=
EXTT3=
EXTT4=
EXTT5=
EXTT6=
EXTT7=
PLAYORDER=
